<svg width="38" height="39" viewBox="0 0 38 39" fill="none" xmlns="http://www.w3.org/2000/svg">
<g clip-path="url(#clip0_127_28877)">
<path d="M16.1053 27.4961C16.5413 27.4961 16.8947 27.123 16.8947 26.6628C16.8947 26.2026 16.5413 25.8295 16.1053 25.8295C15.6693 25.8295 15.3158 26.2026 15.3158 26.6628C15.3158 27.123 15.6693 27.4961 16.1053 27.4961Z" fill="#F42758" stroke="#F42758" stroke-width="2" stroke-linecap="round" stroke-linejoin="round"/>
<path d="M24.7895 27.4961C25.2255 27.4961 25.5789 27.123 25.5789 26.6628C25.5789 26.2026 25.2255 25.8295 24.7895 25.8295C24.3535 25.8295 24 26.2026 24 26.6628C24 27.123 24.3535 27.4961 24.7895 27.4961Z" fill="#F42758" stroke="#F42758" stroke-width="2" stroke-linecap="round" stroke-linejoin="round"/>
<path d="M9.78943 9.99609H12.9473L15.0631 21.1544C15.1353 21.5381 15.333 21.8827 15.6217 22.128C15.9104 22.3733 16.2716 22.5036 16.6421 22.4961H24.3157C24.6862 22.5036 25.0474 22.3733 25.3361 22.128C25.6248 21.8827 25.8225 21.5381 25.8947 21.1544L27.1578 14.1628H13.7368" stroke="#F42758" stroke-width="2" stroke-linecap="round" stroke-linejoin="round"/>
<path d="M24.7528 14.0158L16.4075 14.2715C15.1276 14.3107 14.21 15.526 14.5235 16.7667L15.5304 20.7504C15.7572 21.6477 16.5708 22.27 17.4967 22.2544L23.6537 22.1508C24.5362 22.1359 25.3064 21.5442 25.5491 20.6948L26.7305 16.5589C27.1022 15.2578 26.1041 13.9744 24.7528 14.0158Z" fill="#F42758"/>
</g>
<rect x="0.5" y="0.662781" width="37" height="37" rx="6.5" stroke="#F42758"/>
<defs>
<clipPath id="clip0_127_28877">
<rect width="20" height="20" fill="white" transform="translate(9 9.16278)"/>
</clipPath>
</defs>
</svg>
