<svg width="38" height="39" viewBox="0 0 38 39" fill="none" xmlns="http://www.w3.org/2000/svg">
<circle cx="19.5638" cy="13.2677" r="4.5" fill="#F42758"/>
<path fill-rule="evenodd" clip-rule="evenodd" d="M22.9356 18.7677C22.4151 20.1223 21.1017 21.0838 19.5638 21.0838C18.0259 21.0838 16.7125 20.1223 16.192 18.7677H22.9356ZM14.1076 18.7867C12.0826 18.9839 10.5 20.691 10.5 22.7677V25.5579C10.5 27.7671 12.2909 29.5579 14.5 29.5579H24.6276C26.8367 29.5579 28.6276 27.7671 28.6276 25.5579V22.7677C28.6276 20.691 27.045 18.9839 25.0201 18.7867C24.4287 21.2517 22.2102 23.0838 19.5638 23.0838C16.9174 23.0838 14.699 21.2517 14.1076 18.7867Z" fill="#F42758"/>
<rect x="0.5" y="0.662781" width="37" height="37" rx="6.5" stroke="#F42758"/>
</svg>
