<svg width="40" height="40" viewBox="0 0 40 40" fill="none" xmlns="http://www.w3.org/2000/svg">
<path d="M27 27L22.9477 22.95M24.6516 18.8304C24.6516 20.3767 24.0378 21.8596 22.9453 22.9531C21.8527 24.0465 20.3709 24.6607 18.8258 24.6607C17.2807 24.6607 15.7989 24.0465 14.7063 22.9531C13.6138 21.8596 13 20.3767 13 18.8304C13 17.2841 13.6138 15.8011 14.7063 14.7077C15.7989 13.6143 17.2807 13 18.8258 13C20.3709 13 21.8527 13.6143 22.9453 14.7077C24.0378 15.8011 24.6516 17.2841 24.6516 18.8304Z" stroke="#FF406E" stroke-width="2" stroke-linecap="round"/>
<rect x="0.5" y="0.5" width="39" height="39" rx="6.5" stroke="#FF406E"/>
</svg>
