<svg width="38" height="39" viewBox="0 0 38 39" fill="none" xmlns="http://www.w3.org/2000/svg">
<path fill-rule="evenodd" clip-rule="evenodd" d="M31.2676 12.6785C31.4454 12.0935 31.2676 11.6628 30.4158 11.6628H27.6033C26.8876 11.6628 26.5576 12.0346 26.3786 12.4449C26.3786 12.4449 24.9483 15.8692 22.9222 18.0935C22.2665 18.7385 21.9686 18.9431 21.6108 18.9431C21.4319 18.9431 21.1629 18.7385 21.1629 18.1524V12.6785C21.1629 11.9756 20.9658 11.6628 20.3701 11.6628H15.9472C15.5004 11.6628 15.2315 11.9885 15.2315 12.2981C15.2315 12.9635 16.2451 13.1178 16.349 14.9906V19.0599C16.349 19.9524 16.1851 20.1142 15.8272 20.1142C14.8736 20.1142 12.554 16.6739 11.1772 12.7374C10.9104 11.9714 10.6404 11.6628 9.92151 11.6628H7.10686C6.30329 11.6628 6.14258 12.0346 6.14258 12.4449C6.14258 13.1756 7.09615 16.8056 10.5836 21.6067C12.9086 24.8853 16.1819 26.6628 19.1636 26.6628C20.9519 26.6628 21.1726 26.2685 21.1726 25.5881V23.1099C21.1726 22.3203 21.3419 22.1628 21.9086 22.1628C22.3265 22.1628 23.0411 22.3685 24.7104 23.9489C26.6176 25.8228 26.9315 26.6628 28.0051 26.6628H30.8176C31.6211 26.6628 32.024 26.2685 31.7926 25.4885C31.5376 24.7128 30.6269 23.5867 29.4194 22.2506C28.7636 21.4899 27.7801 20.6703 27.4811 20.2599C27.0644 19.7339 27.1833 19.4992 27.4811 19.031C27.4811 19.031 30.9097 14.2889 31.2665 12.6785H31.2676Z" fill="#F42758"/>
<rect x="0.5" y="0.662781" width="37" height="37" rx="6.5" stroke="#F42758"/>
</svg>
